<?xml version="1.0" encoding="UTF-8"?>
<svg id="Layer_1" data-name="Layer 1" xmlns="http://www.w3.org/2000/svg" viewBox="0 0 1072.62 1065.8">
  <g id="Generative_Object" data-name="Generative Object">
    <g>
      <path d="M821.66,1047.3v6.74l-9.43,6.76-799.36-.09c-2.39,0-7.78-5.37-7.78-7.77L5.02,14.5s-.24-4.94,1.08-7.05,5.69-2.45,5.69-2.45h518.27s5.24.12,7.09,2.21,1.87,6.69,1.87,6.69v258.7s274.25-.46,274.25-.46c0,0,3.64-.13,5.48,1.65,1.5,1.45,1.4,5.81,1.4,5.81,0,0-10.49,743.47-6.99,760.88" style="fill: #6386bc; stroke: #fff; stroke-miterlimit: 10; stroke-width: 10px;"/>
      <g>
        <path d="M768.94,987.71c-3.76,0-7.05-.71-9.7-1.28-1.16-.25-2.26-.48-3-.57-35.49-4.1-70.77-19-99.34-41.94-28.56-22.94-49.5-53.12-58.96-85.01-3.17-10.67-3.13-21.09-3.1-30.28.02-4.95.04-13.17-1.16-15.34-42.56-35.44-65.34-73.19-67.7-112.19-2.13-35.05,12.42-69.4,43.24-102.11,21.73-23.06,50.92-33.52,79.15-43.65l.25-.09c.22-2.29.03-6.05-.09-8.52-.22-4.51-.45-9.18.23-13.9,8.57-58.97,66.71-106.94,129.6-106.94,7.18,0,14.41.62,21.49,1.84,56.5,9.72,99.91,47.92,110.58,97.32.6,2.77,1.05,5.63,1.53,8.65.95,6.03,2.48,15.74,5.46,19.11,67.8,18.33,91.58,31.76,126.27,86.9,10.81,17.18,11.78,33.87,12.72,50,1.89,32.46-9.73,62.59-34.53,89.55-17.22,18.72-30.45,25.43-39.21,29.87-1.96,1-4.36,2.21-5.3,2.89-.14.44-.4,1.46-.58,3.45l-2.16,24.05c-3.13,34.85-22.86,69.41-55.55,97.31-30.56,26.09-69.81,43.63-107.68,48.11l-17.76,2.1-.87-131.8,10.43.89,33.57-32.45,32.98-32.09,30.34-29.27c-.74.21-1.5.37-2.28.48-6.77,6.66-13.69,12.91-20.43,19-5.09,4.59-10.35,9.34-15.36,14.11l-34.15,32.5c-4.26,7.87-10.39,11.86-18.27,11.86-.7,0-1.41-.04-2.11-.11l-14.26-1.47-1.1-168.83c-.08-.13-.16-.26-.25-.39v306.61l-5.18,4.75c-4.88,4.47-11.02,6.84-17.75,6.84ZM747.5,628.87c6.05,8.39,25.26,27.06,37.26,35.06l5.88,3.93c-2.75-3.3-7.27-6.99-11.41-10.36-5.03-4.1-10.24-8.34-14.59-13.42-1.16-1.36-2.3-2.75-3.45-4.14-6.07-7.42-9.05-10.54-13.7-11.08Z" style="fill: #bde695;"/>
        <path d="M778.36,441.9c6.19,0,12.47.52,18.78,1.6,48.75,8.39,88.15,40.93,97.65,84.92,2.57,11.88,2.86,31.64,15.57,39.05,66.11,17.69,87.16,28.88,119.79,80.76,8.54,13.57,9.39,27.01,10.29,42.42,1.73,29.74-9.49,55.13-30.33,77.79-32.05,34.84-47.12,22.03-49.24,45.6l-2.16,24.05c-5.82,64.7-77.79,122.51-149.18,130.97l-.64-96.37c.13.01.25.02.38.02,2.98,0,4.1-3.18,5.72-5.69l32.91-31.81,33.02-32.12,32.93-31.78c5.63-5.43,3.94-15.5.86-20.52-1.8-2.93-7.83-6.36-12.94-6.36-2.29,0-4.4.69-5.86,2.43-.09.08-.24.13-.47.13-.59,0-1.69-.29-3.47-1-13.11,13.63-27.34,25.38-40.98,38.36l-36.16,34.41c-1.17,2.19-2.16,5.54-5.23,5.54-.15,0-.31,0-.47-.02l-1.02-157.81c-4.48-13.27-22.01-21.96-31.32-32.8-7.61-8.87-14.09-19.33-27.83-20.73-1.02-.1-2.12-.16-3.25-.16-5.52,0-11.89,1.28-14.09,4.38-4.27,6.01-2.26,10.07-.75,14.57,3.49,10.37,31.4,36.44,45.01,45.52v291.84c-2.18,2-4.51,2.63-6.94,2.63-3.5,0-7.18-1.31-10.86-1.74-67.6-7.82-127.23-56.37-144.8-115.6-5.98-20.17,2.53-43.48-9.22-53.25-69.09-57.47-86.22-124.27-23.2-191.15,20.11-21.34,49.02-30.96,77.16-41.09,10.6-6.41,5.04-23.21,6.57-33.74,7.23-49.74,57.05-93.24,113.77-93.24M778.36,409.9c-34.56,0-68.65,12.58-95.97,35.42-27.22,22.75-44.79,53.02-49.47,85.22-.7,4.84-.69,9.5-.54,13.57-25.79,9.47-53.42,21.2-74.82,43.91-16.63,17.64-29.09,36.11-37.04,54.89-8.2,19.36-11.74,39.26-10.53,59.16,1.38,22.75,8.95,45.3,22.51,67.02,11.26,18.05,26.81,35.7,46.27,52.55.07,2.14.06,4.78.05,6.95-.03,9.78-.07,21.96,3.76,34.88,21.4,72.15,91.98,128.99,171.65,138.27.33.06,1.08.22,1.63.34,3.03.65,7.6,1.63,13.06,1.63,3.01,0,5.96-.3,8.8-.88v2.22s35.54-4.21,35.54-4.21c20.83-2.47,41.69-8.37,62.01-17.54,19.74-8.91,37.97-20.45,54.18-34.29,35.89-30.63,57.59-69.01,61.1-108.05l1.69-18.75c9.35-4.81,23.77-12.95,41.4-32.11,27.85-30.27,40.88-64.36,38.73-101.31-1.01-17.31-2.15-36.93-15.15-57.6-19.55-31.08-36.05-49.32-56.94-62.95-19.14-12.5-41.06-20.41-71.08-28.78-.58-2.68-1.09-5.93-1.46-8.25-.49-3.11-1-6.32-1.69-9.53-12.05-55.81-60.53-98.87-123.5-109.71-7.97-1.37-16.12-2.07-24.21-2.07h0Z" style="fill: #6386bc;"/>
        <path d="M808.88,872.69c3.27.28,4.41-3.06,6.09-5.67l32.91-31.81,33.02-32.12,32.93-31.78c5.63-5.43,3.94-15.5.86-20.52-2.61-4.25-14.1-9.54-18.79-3.93-.3.29-1.46.11-3.94-.87-13.11,13.63-27.34,25.38-40.98,38.36l-36.16,34.41c-1.23,2.3-2.25,5.88-5.7,5.52l-1.02-157.81c-4.48-13.27-22.01-21.96-31.32-32.8-7.61-8.87-14.09-19.33-27.83-20.73-5.97-.61-14.69.49-17.34,4.22-4.27,6.01-2.26,10.07-.75,14.57,3.49,10.37,31.4,36.44,45.01,45.52v291.84c-5.32,4.88-11.57,1.61-17.8.89-67.6-7.82-127.23-56.37-144.8-115.6-5.98-20.17,2.53-43.48-9.22-53.25-69.09-57.47-86.22-124.27-23.2-191.15,20.11-21.34,49.02-30.96,77.16-41.09,10.6-6.41,5.04-23.21,6.57-33.74,8.02-55.17,68.43-102.67,132.55-91.64,48.75,8.39,88.15,40.93,97.65,84.92,2.57,11.88,2.86,31.64,15.57,39.05,66.11,17.69,87.16,28.88,119.79,80.76,8.54,13.57,9.39,27.01,10.29,42.42,1.73,29.74-9.49,55.13-30.33,77.79-32.05,34.84-47.12,22.03-49.24,45.6l-2.16,24.05c-5.82,64.7-77.79,122.51-149.18,130.97l-.64-96.37Z" style="fill: none; stroke: #fff; stroke-miterlimit: 10; stroke-width: 5px;"/>
      </g>
    </g>
  </g>
  <g>
    <rect x="132.14" y="358.99" width="299.87" height="107.61" style="fill: #ffffd3; stroke: #fff; stroke-miterlimit: 10; stroke-width: 5px;"/>
    <rect x="132.14" y="118.79" width="299.87" height="107.61" style="fill: #ffffd3; stroke: #fff; stroke-miterlimit: 10; stroke-width: 5px;"/>
    <rect x="132.14" y="599.19" width="299.87" height="107.61" style="fill: #ffffd3; stroke: #fff; stroke-miterlimit: 10; stroke-width: 5px;"/>
    <rect x="132.14" y="839.39" width="299.87" height="107.61" style="fill: #ffffd3; stroke: #fff; stroke-miterlimit: 10; stroke-width: 5px;"/>
  </g>
</svg>