<?xml version="1.0" encoding="UTF-8"?>
<svg id="Layer_1" data-name="Layer 1" xmlns="http://www.w3.org/2000/svg" viewBox="0 0 1069.86 1065.71">
  <path d="M568.4,1027.53s3.43,15.08-5.7,24.01c-8,7.82-23.82,6.24-23.82,6.24l-525.62,2.93c-2.51,0-8.17-5.37-8.17-7.77L5.02,14.5s-.25-4.94,1.13-7.05,5.97-2.45,5.97-2.45h544.02s5.5.12,7.44,2.21,1.96,6.69,1.96,6.69l2.85,1013.63Z" style="fill: #893045; stroke: #fff; stroke-miterlimit: 10; stroke-width: 10px;"/>
  <path d="M807.73,1033.06s1.98,12.57-3.3,20.01c-4.63,6.52-13.79,5.2-13.79,5.2l-304.23,2.45c-1.45,0-4.73-4.48-4.73-6.48l-.04-865.55s-.15-4.12.66-5.88,3.46-2.04,3.46-2.04h314.87s3.18.1,4.31,1.84,1.14,5.58,1.14,5.58l1.65,844.87Z" style="fill: #d77e79; stroke: #fff; stroke-miterlimit: 10; stroke-width: 10px;"/>
  <g>
    <path d="M769.15,984.98c-3.72,0-6.98-.7-9.61-1.27-1.15-.25-2.24-.48-2.97-.56-35.14-4.06-70.08-18.82-98.37-41.53-28.28-22.72-49.02-52.6-58.39-84.18-3.14-10.57-3.1-20.88-3.07-29.99.02-4.9.04-13.04-1.15-15.19-42.15-35.1-64.7-72.48-67.04-111.1-2.11-34.71,12.3-68.72,42.82-101.12,21.52-22.84,50.42-33.19,78.38-43.23l.25-.09c.22-2.27.03-5.99-.09-8.44-.22-4.47-.45-9.09.23-13.76,8.49-58.4,66.06-105.9,128.34-105.9,7.11,0,14.27.61,21.28,1.82,55.95,9.63,98.94,47.45,109.5,96.37.59,2.74,1.04,5.58,1.52,8.57.94,5.97,2.46,15.59,5.41,18.92,67.14,18.15,90.69,31.45,125.04,86.05,10.7,17.01,11.67,33.54,12.6,49.51,1.87,32.14-9.64,61.98-34.19,88.68-17.05,18.54-30.15,25.18-38.83,29.58-1.94.99-4.32,2.19-5.25,2.86-.14.44-.4,1.45-.57,3.42l-2.14,23.82c-3.1,34.51-22.64,68.73-55.01,96.36-30.26,25.84-69.13,43.21-106.63,47.64l-17.59,2.08-.86-130.52,10.33.88,33.24-32.13,32.66-31.78,30.04-28.99c-.73.21-1.49.37-2.26.48-6.7,6.6-13.56,12.78-20.23,18.82-5.04,4.55-10.25,9.25-15.21,13.97l-33.82,32.18c-4.22,7.79-10.29,11.74-18.09,11.74-.69,0-1.4-.04-2.09-.11l-14.12-1.46-1.09-167.19c-.08-.13-.16-.26-.25-.39v303.63l-5.13,4.7c-4.83,4.43-10.91,6.77-17.58,6.77v.04ZM747.92,629.63c5.99,8.31,25.01,26.8,36.9,34.72l5.82,3.89c-2.72-3.27-7.2-6.92-11.3-10.26-4.98-4.06-10.14-8.26-14.45-13.29-1.15-1.35-2.28-2.72-3.42-4.1-6.01-7.35-8.96-10.44-13.57-10.97h0Z" style="fill: #5d7a4d;"/>
    <path d="M778.48,444.48c6.13,0,12.35.51,18.6,1.58,48.28,8.31,87.29,40.53,96.7,84.09,2.55,11.76,2.83,31.33,15.42,38.67,65.47,17.52,86.31,28.6,118.62,79.97,8.46,13.44,9.3,26.75,10.19,42.01,1.71,29.45-9.4,54.59-30.03,77.03-31.74,34.5-46.66,21.82-48.76,45.16l-2.14,23.82c-5.76,64.07-77.03,121.32-147.73,129.7l-.63-95.43c.13,0,.25.02.38.02,2.95,0,4.06-3.15,5.66-5.63l32.59-31.5,32.7-31.81,32.61-31.47c5.58-5.38,3.9-15.35.85-20.32-1.78-2.9-7.75-6.3-12.81-6.3-2.27,0-4.36.68-5.8,2.41-.09.08-.24.13-.47.13-.58,0-1.67-.29-3.44-.99-12.98,13.5-27.07,25.13-40.58,37.99l-35.81,34.08c-1.16,2.17-2.14,5.49-5.18,5.49-.15,0-.31,0-.47-.02l-1.01-156.27c-4.44-13.14-21.8-21.75-31.02-32.48-7.54-8.78-13.95-19.14-27.56-20.53-1.01-.1-2.1-.16-3.22-.16-5.47,0-11.77,1.27-13.95,4.34-4.23,5.95-2.24,9.97-.74,14.43,3.46,10.27,31.09,36.09,44.57,45.08v289c-2.16,1.98-4.47,2.6-6.87,2.6-3.47,0-7.11-1.3-10.75-1.72-66.94-7.74-125.99-55.82-143.39-114.48-5.92-19.97,2.51-43.06-9.13-52.73-68.42-56.91-85.38-123.06-22.97-189.29,19.91-21.13,48.54-30.66,76.41-40.69,10.5-6.35,4.99-22.98,6.51-33.41,7.16-49.26,56.49-92.33,112.66-92.33M778.48,412.79c-34.22,0-67.98,12.46-95.04,35.08-26.96,22.53-44.35,52.5-48.99,84.39-.69,4.79-.68,9.41-.53,13.44-25.54,9.38-52.9,20.99-74.09,43.48-16.47,17.47-28.81,35.76-36.68,54.36-8.12,19.17-11.63,38.88-10.43,58.58,1.37,22.53,8.86,44.86,22.29,66.37,11.15,17.87,26.55,35.35,45.82,52.04.07,2.12.06,4.73.05,6.88-.03,9.68-.07,21.75,3.72,34.54,21.19,71.45,91.09,127.74,169.98,136.92.33.06,17.79,1.83,18.34,1.95,3,.64-.6,32.32,1.44,37.33,6.61,16.26,15.18,15.15,22.17,15.14,5.87,0,14.09-8.83,15.83-15.76l.68-39.56c20.63-2.45,41.28-8.29,61.41-17.37,19.55-8.82,37.6-20.25,53.65-33.96,35.54-30.33,57.03-68.34,60.51-107l1.67-18.57c9.26-4.76,23.54-12.82,41-31.8,27.58-29.98,40.48-63.73,38.35-100.32-1-17.14-2.13-36.57-15-57.04-19.36-30.78-35.7-48.84-56.39-62.34-18.95-12.38-40.66-20.21-70.39-28.5-.57-2.65-1.08-5.87-1.45-8.17-.49-3.08-.99-6.26-1.67-9.44-11.93-55.27-59.94-97.91-122.3-108.64-7.89-1.36-15.96-2.05-23.97-2.05h.02Z" style="fill: #d77e79;"/>
    <path d="M808.7,871.08c3.24.28,4.37-3.03,6.03-5.61l32.59-31.5,32.7-31.81,32.61-31.47c5.58-5.38,3.9-15.35.85-20.32-2.58-4.21-13.96-9.45-18.61-3.89-.3.29-1.45.11-3.9-.86-12.98,13.5-27.07,25.13-40.58,37.99l-35.81,34.08c-1.22,2.28-2.23,5.82-5.64,5.47l-1.01-156.27c-4.44-13.14-21.8-21.75-31.02-32.48-7.54-8.78-13.95-19.14-27.56-20.53-5.91-.6-14.55.49-17.17,4.18-4.23,5.95-2.24,9.97-.74,14.43,3.46,10.27,31.09,36.09,44.57,45.08v289c-5.27,4.83-11.46,1.59-17.63.88-66.94-7.74-125.99-55.82-143.39-114.48-5.92-19.97,2.51-43.06-9.13-52.73-68.42-56.91-85.38-123.06-22.97-189.29,19.91-21.13,48.54-30.66,76.41-40.69,10.5-6.35,4.99-22.98,6.51-33.41,7.94-54.63,67.76-101.67,131.26-90.75,48.28,8.31,87.29,40.53,96.7,84.09,2.55,11.76,2.83,31.33,15.42,38.67,65.47,17.52,86.31,28.6,118.62,79.97,8.46,13.44,9.3,26.75,10.19,42.01,1.71,29.45-9.4,54.59-30.03,77.03-31.74,34.5-46.66,21.82-48.76,45.16l-2.14,23.82c-5.76,64.07-77.03,121.32-147.73,129.7l-.63-95.43h0Z" style="fill: none; stroke: #fff; stroke-miterlimit: 10; stroke-width: 5px;"/>
  </g>
  <g>
    <rect x="119.83" y="358.99" width="270.84" height="107.61" style="fill: #ffebb1; stroke: #fff; stroke-miterlimit: 10; stroke-width: 5px;"/>
    <rect x="119.83" y="118.79" width="270.84" height="107.61" style="fill: #ffebb1; stroke: #fff; stroke-miterlimit: 10; stroke-width: 5px;"/>
    <rect x="119.83" y="599.19" width="270.84" height="107.61" style="fill: #ffebb1; stroke: #fff; stroke-miterlimit: 10; stroke-width: 5px;"/>
    <rect x="119.83" y="839.39" width="270.84" height="107.61" style="fill: #ffebb1; stroke: #fff; stroke-miterlimit: 10; stroke-width: 5px;"/>
  </g>
</svg>