<?xml version="1.0" encoding="UTF-8"?>
<svg id="Layer_1" data-name="Layer 1" xmlns="http://www.w3.org/2000/svg" viewBox="0 0 1069.85 1065.72">
  <path d="M807.76,1049.6s1.79,5.06-2.99,8.05c-4.19,2.62-12.49,2.09-12.49,2.09l-275.47.99c-1.31,0-4.28-1.8-4.28-2.61l-.04-348.13s-.14-1.66.6-2.36,3.13-.82,3.13-.82h285.1s2.88.04,3.9.74,1.03,2.24,1.03,2.24l1.49,339.81h0Z" style="fill: #d77e79; stroke: #fff; stroke-miterlimit: 10; stroke-width: 10px;"/>
  <path d="M568.4,1027.53s3.43,15.08-5.7,24.01c-8,7.82-23.82,6.24-23.82,6.24l-525.62,2.93c-2.51,0-8.17-5.37-8.17-7.77L5.02,14.5s-.25-4.94,1.13-7.05,5.97-2.45,5.97-2.45h544.02s5.5.12,7.44,2.21,1.96,6.69,1.96,6.69l2.85,1013.63h.01Z" style="fill: #893045; stroke: #fff; stroke-miterlimit: 10; stroke-width: 10px;"/>
  <g>
    <path d="M769.15,979.24c-3.72,0-6.98-.76-9.61-1.38-1.15-.27-2.24-.52-2.97-.61-35.14-4.4-70.08-20.4-98.37-45.02-28.28-24.63-49.02-57.02-58.39-91.25-3.14-11.46-3.1-22.63-3.07-32.51.02-5.31.04-14.13-1.15-16.47-42.15-38.05-64.7-78.57-67.04-120.43-2.11-37.62,12.3-74.49,42.82-109.61,21.52-24.76,50.42-35.98,78.38-46.86l.25-.1c.22-2.46.03-6.49-.09-9.15-.22-4.85-.45-9.85.23-14.92,8.49-63.3,66.06-114.79,128.34-114.79,7.11,0,14.27.66,21.28,1.97,55.95,10.44,98.94,51.43,109.5,104.46.59,2.97,1.04,6.05,1.52,9.29.94,6.47,2.46,16.9,5.41,20.51,67.14,19.67,90.69,34.09,125.04,93.27,10.7,18.44,11.67,36.36,12.6,53.67,1.87,34.84-9.64,67.18-34.19,96.13-17.05,20.1-30.15,27.29-38.83,32.06-1.94,1.07-4.32,2.37-5.25,3.1-.14.48-.4,1.57-.57,3.71l-2.14,25.82c-3.1,37.41-22.64,74.5-55.01,104.45-30.26,28.01-69.13,46.84-106.63,51.64l-17.59,2.25-.86-141.48,10.33.95,33.24-34.83,32.66-34.45,30.04-31.42c-.73.23-1.49.4-2.26.52-6.7,7.15-13.56,13.85-20.23,20.4-5.04,4.93-10.25,10.03-15.21,15.14l-33.82,34.88c-4.22,8.44-10.29,12.73-18.09,12.73-.69,0-1.4-.04-2.09-.12l-14.12-1.58-1.09-181.23c-.08-.14-.16-.28-.25-.42v329.12l-5.13,5.09c-4.83,4.8-10.91,7.34-17.58,7.34v.09h0ZM747.92,594.06c5.99,9.01,25.01,29.05,36.9,37.64l5.82,4.22c-2.72-3.54-7.2-7.5-11.3-11.12-4.98-4.4-10.14-8.95-14.45-14.41-1.15-1.46-2.28-2.95-3.42-4.44-6.01-7.97-8.96-11.32-13.57-11.89h.02,0Z" style="fill: #5d7a4d;"/>
    <path d="M778.48,393.36c6.13,0,12.35.55,18.6,1.71,48.28,9.01,87.29,43.93,96.7,91.15,2.55,12.75,2.83,33.96,15.42,41.92,65.47,18.99,86.31,31,118.62,86.68,8.46,14.57,9.3,29,10.19,45.54,1.71,31.92-9.4,59.17-30.03,83.5-31.74,37.4-46.66,23.65-48.76,48.95l-2.14,25.82c-5.76,69.45-77.03,131.51-147.73,140.59l-.63-103.44c.13,0,.25.02.38.02,2.95,0,4.06-3.41,5.66-6.1l32.59-34.14,32.7-34.48,32.61-34.11c5.58-5.83,3.9-16.64.85-22.03-1.78-3.14-7.75-6.83-12.81-6.83-2.27,0-4.36.74-5.8,2.61-.09.09-.24.14-.47.14-.58,0-1.67-.31-3.44-1.07-12.98,14.63-27.07,27.24-40.58,41.18l-35.81,36.94c-1.16,2.35-2.14,5.95-5.18,5.95-.15,0-.31,0-.47-.02l-1.01-169.39c-4.44-14.24-21.8-23.58-31.02-35.21-7.54-9.52-13.95-20.75-27.56-22.25-1.01-.11-2.1-.17-3.22-.17-5.47,0-11.77,1.38-13.95,4.7-4.23,6.45-2.24,10.81-.74,15.64,3.46,11.13,31.09,39.12,44.57,48.86v313.26c-2.16,2.15-4.47,2.82-6.87,2.82-3.47,0-7.11-1.41-10.75-1.86-66.94-8.39-125.99-60.51-143.39-124.09-5.92-21.65,2.51-46.68-9.13-57.16-68.42-61.69-85.38-133.39-22.97-205.18,19.91-22.9,48.54-33.23,76.41-44.11,10.5-6.88,4.99-24.91,6.51-36.22,7.16-53.4,56.49-100.08,112.66-100.08M778.48,359.01c-34.22,0-67.98,13.51-95.04,38.03-26.96,24.42-44.35,56.91-48.99,91.48-.69,5.19-.68,10.2-.53,14.57-25.54,10.17-52.9,22.75-74.09,47.13-16.47,18.94-28.81,38.76-36.68,58.92-8.12,20.78-11.63,42.14-10.43,63.5,1.37,24.42,8.86,48.63,22.29,71.94,11.15,19.37,26.55,38.32,45.82,56.41.07,2.3.06,5.13.05,7.46-.03,10.49-.07,23.58,3.72,37.44,21.19,77.45,91.09,138.47,169.98,148.42.33.07,17.79,1.98,18.34,2.11,3,.69-.6,35.03,1.44,40.46,6.61,17.63,15.18,16.42,22.17,16.41,5.87,0,14.09-9.57,15.83-17.08l.68-42.88c20.63-2.66,41.28-8.99,61.41-18.83,19.55-9.56,37.6-21.95,53.65-36.81,35.54-32.88,57.03-74.08,60.51-115.98l1.67-20.13c9.26-5.16,23.54-13.9,41-34.47,27.58-32.5,40.48-69.08,38.35-108.74-1-18.58-2.13-39.64-15-61.83-19.36-33.36-35.7-52.94-56.39-67.57-18.95-13.42-40.66-21.91-70.39-30.89-.57-2.87-1.08-6.36-1.45-8.86-.49-3.34-.99-6.79-1.67-10.23-11.93-59.91-59.94-106.13-122.3-117.76-7.89-1.47-15.96-2.22-23.97-2.22h.02v.02h0Z" style="fill: #d77e79;"/>
    <path d="M808.7,855.78c3.24.3,4.37-3.28,6.03-6.08l32.59-34.14,32.7-34.48,32.61-34.11c5.58-5.83,3.9-16.64.85-22.03-2.58-4.56-13.96-10.24-18.61-4.22-.3.31-1.45.12-3.9-.93-12.98,14.63-27.07,27.24-40.58,41.18l-35.81,36.94c-1.22,2.47-2.23,6.31-5.64,5.93l-1.01-169.39c-4.44-14.24-21.8-23.58-31.02-35.21-7.54-9.52-13.95-20.75-27.56-22.25-5.91-.65-14.55.53-17.17,4.53-4.23,6.45-2.24,10.81-.74,15.64,3.46,11.13,31.09,39.12,44.57,48.86v313.26c-5.27,5.24-11.46,1.72-17.63.95-66.94-8.39-125.99-60.51-143.39-124.09-5.92-21.65,2.51-46.68-9.13-57.16-68.42-61.69-85.38-133.39-22.97-205.18,19.91-22.9,48.54-33.23,76.41-44.11,10.5-6.88,4.99-24.91,6.51-36.22,7.94-59.22,67.76-110.21,131.26-98.37,48.28,9.01,87.29,43.93,96.7,91.15,2.55,12.75,2.83,33.96,15.42,41.92,65.47,18.99,86.31,31,118.62,86.68,8.46,14.57,9.3,29,10.19,45.54,1.71,31.92-9.4,59.17-30.03,83.5-31.74,37.4-46.66,23.65-48.76,48.95l-2.14,25.82c-5.76,69.45-77.03,131.51-147.73,140.59l-.63-103.44h0v-.04h0Z" style="fill: none; stroke: #fff; stroke-miterlimit: 10; stroke-width: 5px;"/>
  </g>
  <g>
    <rect x="119.83" y="358.99" width="270.84" height="107.61" style="fill: #ffebb1; stroke: #fff; stroke-miterlimit: 10; stroke-width: 5px;"/>
    <rect x="119.83" y="118.79" width="270.84" height="107.61" style="fill: #ffebb1; stroke: #fff; stroke-miterlimit: 10; stroke-width: 5px;"/>
    <rect x="119.83" y="599.19" width="270.84" height="107.61" style="fill: #ffebb1; stroke: #fff; stroke-miterlimit: 10; stroke-width: 5px;"/>
    <rect x="119.83" y="839.39" width="270.84" height="107.61" style="fill: #ffebb1; stroke: #fff; stroke-miterlimit: 10; stroke-width: 5px;"/>
  </g>
</svg>